<svg version="1.1" xmlns="http://www.w3.org/2000/svg" style="display: block;" viewBox="0 0 2048 774" width="968" height="366" preserveAspectRatio="xMidYMid meet" fill="none">
<path transform="translate(0,0)" fill="rgb(0,0,0)" d="M 861.421 72.8674 C 865.975 72.8118 867.732 73.5127 870.361 77.1513 C 871.313 83.1746 856.892 106.299 853.545 113.665 L 743.72 351.873 L 719.696 403.971 C 717.181 409.481 704.126 435.961 706.247 440.039 C 713.95 443.08 762.591 442.358 774.835 442.645 C 783.593 422.616 795.278 401.585 804.274 381.45 C 807.001 375.345 811.791 365.359 818.299 363.069 C 822.296 363.248 822.013 362.554 824.214 364.725 C 823.671 374.105 797.617 429.544 791.862 442.833 C 847.454 443.774 903.04 445.036 958.617 446.618 C 977.853 447.237 1000.92 447.664 1020.34 449.931 C 1022.72 450.209 1025.08 452.194 1026.39 454.424 C 1023.7 457.004 1018.88 457.797 1015.17 457.598 C 939.324 453.526 863.217 451.707 787.252 451.474 C 781.683 462.62 776.185 473.8 770.756 485.014 C 785.261 472.19 808.266 467.414 809.992 493.487 C 811.527 516.663 791.662 553.169 766.212 555.249 C 756.204 556.067 749.321 551.431 742.196 545.228 L 741.857 545.524 C 738.789 548.146 736.895 550.55 732.86 550.899 C 731.212 550.24 730.531 550.255 729.854 548.49 C 725.983 538.383 763.448 465.686 769.878 451.831 L 698.926 452.124 C 698.138 453.326 696.051 456.632 695.436 458.101 C 673.566 510.328 643.475 568.559 638.164 625.162 C 637.482 632.436 644.503 638.87 646.146 643.532 C 642.137 650.94 625.802 645.938 624.472 637.966 C 616.783 591.856 652.175 518.894 669.413 478.749 C 671.118 474.727 672.891 470.735 674.731 466.774 C 676.257 463.409 679.032 457.841 677.667 454.215 C 672.482 451.848 633.098 452.12 630.167 455.786 C 522.653 590.264 373.134 764.438 179.431 711.804 C 144.698 702.366 98.0231 678.365 80.2996 646.068 C 71.3209 629.919 69.2929 610.814 74.6815 593.141 C 106.755 484.211 393.764 454.067 490.81 448.823 L 559.363 445.436 C 572.726 444.884 605.545 447.336 616.192 442.543 C 634.746 434.191 784.201 195.772 804.791 161.834 C 815.044 144.935 825.457 128.059 835.273 110.904 C 841.213 100.522 846.431 88.8239 853.415 79.1329 C 855.533 76.1938 858.306 74.5638 861.421 72.8674 z"/>
<path transform="translate(0,0)" fill="rgb(255,255,255)" d="M 569.603 455.452 C 579.372 455.246 591.334 454.075 600.946 454.503 C 603.158 454.602 603.987 456.096 604.952 457.633 C 604.947 458.675 604.661 461.07 604.029 461.896 C 501.166 596.219 335.921 777.634 149.892 687.921 C 136.859 680.887 125.421 673.949 114.397 663.684 C 99.0075 649.355 90.0307 634.775 88.7926 613.626 C 87.7963 596.604 96.0962 577.376 108.095 565.917 C 204.445 473.899 445.237 458.669 569.603 455.452 z"/>
<path transform="translate(0,0)" fill="rgb(255,255,255)" d="M 772.634 244.788 C 772.704 245.122 772.834 245.617 772.835 245.984 C 772.848 253.603 691.514 432.73 685.616 438.271 C 677.389 446 653.562 443.033 642.544 442.833 C 642.137 440.075 642.288 438.383 643.969 436.03 C 682.849 381.637 720.184 326.315 756.018 269.866 C 761.356 261.456 766.822 252.849 772.634 244.788 z"/>
<path transform="translate(0,0)" fill="rgb(255,255,255)" d="M 787.667 485.837 C 791.259 485.593 792.098 486.188 794.355 488.655 C 799.472 503.999 777.005 539.428 761.642 544.971 C 736.057 526.132 768.831 494.704 787.667 485.837 z"/>
<path transform="translate(0,0)" fill="rgb(0,0,0)" d="M 1634.74 116.321 C 1638.24 115.406 1646.99 116.338 1650.43 117.425 C 1677.84 126.084 1669.31 166.168 1663.66 186.023 C 1648.67 238.668 1626.49 290.23 1604.1 339.99 L 1517.94 527.324 C 1500.77 565.389 1483.31 604.145 1470.96 644.629 C 1467.08 657.342 1450.29 713.269 1469.48 721.868 C 1473.92 723.861 1488.97 716.161 1494.39 713.135 C 1533.33 691.403 1567 660.994 1599.97 631.263 C 1660.78 575.291 1719.72 514.19 1775.48 453.19 L 1817.65 406.658 C 1825.58 397.782 1870.3 338.76 1881.85 359.609 C 1883.74 370.602 1866.73 400.846 1860.95 413.379 C 1839.47 459.539 1819.56 506.414 1801.26 553.924 C 1790.85 580.623 1780.94 608.096 1770.25 634.688 C 1768.24 639.681 1766.92 641.663 1762.28 643.36 C 1758.72 642.527 1759.91 643.28 1757.64 640.251 C 1753.28 621.538 1804.12 496.422 1813.87 473.572 C 1820.64 457.711 1838.29 421.113 1843.42 403.833 C 1833.23 411.627 1819.59 428.771 1810.3 439.185 C 1794.37 457.061 1778.2 474.716 1761.78 492.143 C 1699.08 558.434 1642.39 615.63 1572.41 674.456 C 1548.42 693.88 1500.86 733.609 1468.93 733.918 C 1461.83 733.986 1454.33 732.213 1449.2 727.017 C 1411.11 688.406 1521.59 474.485 1544.57 425.942 C 1564.72 383.982 1584.27 341.736 1603.22 299.219 C 1623.54 252.521 1645.69 199.835 1649.66 148.779 C 1650.39 139.405 1644.1 124.934 1632.83 128.041 C 1569.22 145.579 1495.44 207.783 1447.3 251.881 C 1421.58 275.192 1397.22 299.976 1374.37 326.107 C 1340.36 365.299 1294.48 427.988 1298.05 483.424 C 1301.97 544.233 1388.02 545.567 1432.76 548.632 C 1439.96 549.125 1456.28 547.579 1461.44 552.022 L 1461.29 554.18 C 1459.35 556.261 1457.3 557.064 1454.42 557.037 C 1402.23 556.552 1291.7 558.357 1282.43 489.036 C 1276.26 442.9 1308.86 386.09 1336.01 350.762 C 1390.63 279.95 1458.85 218.254 1531.77 166.744 C 1562.7 144.901 1596.69 122.05 1634.74 116.321 z"/>
<path transform="translate(0,0)" fill="rgb(0,0,0)" d="M 1170.52 356.606 C 1173.35 356.726 1174.07 356.606 1176.32 358.358 C 1183.59 369.488 1157.75 397.864 1165.45 408.553 C 1172.4 411.995 1200.56 405.678 1205.93 412.014 L 1205.5 413.98 C 1195.37 421.458 1168.09 412.004 1157.37 419.405 C 1151.31 423.583 1116.78 513.71 1114.27 526.391 C 1113.05 532.58 1112.35 539.013 1116.02 544.513 C 1130.89 557.206 1168.85 525.182 1178.76 514.513 C 1180.33 512.82 1184.21 510.468 1186.55 510.702 L 1187.6 512.452 C 1187.45 516.194 1186.73 517.136 1184.85 520.448 C 1166.49 541.249 1134.4 570.808 1102.54 554.27 C 1097.34 551.275 1094.12 542.842 1094.82 537.031 C 1098.77 504.354 1117.57 473.457 1128.66 442.619 C 1130.1 438.608 1137.39 423.849 1135.29 420.714 C 1130.29 413.262 1102.36 425.302 1100.05 414.391 C 1104.09 408.674 1133.78 410.018 1142.12 408.881 C 1151.53 394.922 1159.54 366.126 1170.52 356.606 z"/>
<path transform="translate(0,0)" fill="rgb(0,0,0)" d="M 1896.24 477.188 C 1897.73 477.159 1899.22 477.17 1900.7 477.22 C 1907 477.454 1914.31 481.097 1918.53 485.672 C 1919.79 489.344 1918.36 492.295 1915.08 493.372 C 1905.8 496.418 1904.89 481.551 1893.09 487.441 C 1884.75 495.438 1894.86 515.795 1899.38 523.796 C 1907.47 521.367 1940.22 506.992 1945.58 510.829 C 1946.2 515.44 1944.78 515.035 1941.36 516.886 C 1932.26 521.806 1911.27 526.476 1905.83 535.447 C 1905.89 539.605 1910.06 552.637 1911.37 557.664 C 1911.14 571.901 1899.49 577.439 1887.4 580.608 C 1878.2 583.019 1854.29 587.338 1846.56 581.472 C 1820.9 561.986 1874.17 544.089 1882.32 531.77 C 1887.94 522.21 1867.26 500.56 1877.57 487.702 C 1884.31 479.302 1886.37 479.204 1896.24 477.188 z"/>
<path transform="translate(0,0)" fill="rgb(255,255,255)" d="M 1886.01 544.66 C 1887.06 544.628 1888.6 545.127 1889.67 545.415 C 1892.41 548.099 1894.14 551.12 1893.97 554.98 C 1893.26 571.053 1873.51 571.69 1862.73 572.009 C 1858.54 571.454 1856.44 571.964 1856.01 567.61 C 1859.98 559.677 1877.88 549.632 1886.01 544.66 z"/>
<path transform="translate(0,0)" fill="rgb(0,0,0)" d="M 967.249 486.726 C 971.233 486.821 973.23 486.818 976.147 489.365 C 983.203 501.326 954.668 536.923 961.438 546.861 C 974.382 549.392 1008.31 503.831 1018.29 494.958 C 1022.42 491.291 1026.23 489.402 1031.66 491.98 C 1039.52 503.583 1016.73 532.142 1025.85 539.911 C 1033.72 540.849 1055.25 524.465 1062.23 519.627 C 1067.46 515.514 1069.75 513.242 1076.53 512.591 L 1077.92 514.046 C 1077.53 522.995 1050.13 541.806 1041.98 546.451 C 1021.31 558.226 1008.31 556.123 1004.55 531.452 C 997.756 537.757 955.277 579.549 946.253 553.751 C 940.555 537.459 959.224 502.552 967.249 486.726 z"/>
<path transform="translate(0,0)" fill="rgb(0,0,0)" d="M 890.085 494.129 C 937.375 489.683 911.312 553.139 866.418 552.955 C 856.706 551.667 846.093 549.809 842.437 539.364 C 837.095 524.102 856.094 498.792 871.153 496.581 C 878.411 495.516 881.271 497.043 890.085 494.129 z"/>
<path transform="translate(0,0)" fill="rgb(255,255,255)" d="M 884.128 504.197 C 889.835 503.476 894.789 502.57 898.898 507.172 C 903.831 519.815 882.673 536.531 872.683 541.571 C 866.346 543.384 862.403 544.848 858.327 538.953 C 855.501 524.815 871.75 509.026 884.128 504.197 z"/>
</svg>