<svg version="1.1" xmlns="http://www.w3.org/2000/svg" style="display: block;" viewBox="0 0 2048 689" width="1142" height="384" preserveAspectRatio="xMidYMid meet" fill="none">
<path transform="translate(0,0)" fill="rgb(0,0,0)" d="M 1626.85 46.8541 C 1633.62 46.8522 1639.08 48.3926 1634.97 56.4479 C 1608.82 107.709 1585.35 161.186 1561.24 213.43 L 1517.76 307.491 C 1512.78 318.396 1498.89 344.978 1497.1 357.464 C 1496.63 360.727 1521.07 359.9 1525.24 359.916 C 1572.57 360.386 1619.89 361.241 1667.2 362.481 C 1695.76 363.099 1725.38 363.941 1753.99 365.455 C 1758.29 365.682 1765.04 367.472 1768.66 369.981 L 1767.77 371.835 C 1758.34 374.436 1740.88 371.426 1730.15 371.114 L 1632.29 368.32 C 1587.28 367.357 1535.51 367.2 1490.67 368.481 C 1484.23 378.904 1470.82 413.42 1464.88 427.049 C 1454.94 449.848 1442.94 485.213 1439.25 510.285 C 1438.58 514.868 1443.38 525.785 1445.35 530.45 C 1444.57 532.455 1444.23 533.244 1442.12 534.138 C 1440.36 534.888 1438.01 534.523 1436.28 533.848 C 1432.4 532.335 1429.75 528.963 1428.15 525.233 C 1415.87 496.635 1459.14 409.426 1470.85 379.493 C 1472.1 376.287 1473.51 373.059 1472.1 369.819 C 1467.01 367.794 1435.28 368.308 1432 371.99 C 1417.16 388.643 1403.7 407.102 1389.26 424.318 C 1374.95 441.468 1360.02 458.09 1344.49 474.153 C 1328.68 489.798 1312.52 504.684 1295.36 518.849 C 1233.78 569.687 1166.77 603.19 1085.25 595.312 C 1046.93 591.609 999.078 574.435 974.076 543.81 C 963.761 531.174 957.742 515.914 959.455 499.461 C 967.388 423.296 1118.59 390.502 1180.23 380.023 C 1223.94 372.593 1269.06 368.351 1313.29 365.633 C 1330.29 364.588 1412.03 363.2 1420.74 359.73 C 1437.21 353.176 1564.66 148.528 1581.79 120.294 C 1589.85 107.024 1619.45 52.8231 1626.85 46.8541 z"/>
<path transform="translate(0,0)" fill="rgb(254,254,254)" d="M 1372.42 371.429 C 1379.92 371.137 1407.13 369.268 1412.33 372.273 C 1412.37 372.694 1412.38 373.902 1412.13 374.242 C 1354.75 452.193 1278.9 534.604 1189.14 573.419 C 1138.08 595.498 1082.99 593.194 1034.49 572.773 C 1020.56 566.298 1006.66 558.335 995.354 547.827 C 983.508 536.818 974.322 522.472 973.759 505.908 C 973.222 490.074 979.915 475.566 990.652 464.193 C 1061.33 389.329 1274.95 374.506 1372.42 371.429 z"/>
<path transform="translate(0,0)" fill="rgb(254,254,254)" d="M 1552.75 192.862 L 1553.66 194.078 C 1547.41 212.374 1486.4 349.444 1479.56 356.593 C 1473.72 362.696 1453.01 360.625 1444.6 360.605 C 1443.52 359.854 1443.42 359.06 1442.98 357.799 C 1445.28 352.056 1477.9 306.918 1483.31 298.974 C 1506.81 263.833 1529.95 228.461 1552.75 192.862 z"/>
<path transform="translate(0,0)" fill="rgb(0,0,0)" d="M 294.061 232.467 C 296.269 232.635 297.543 233.105 299.639 233.754 C 305.836 241.081 299.717 247.276 298.882 253.856 C 296.691 271.116 246.152 383.74 248.217 392.16 C 255.044 397.108 322.195 388.196 334.878 392.314 C 336.871 392.961 337.275 394.15 337.867 395.985 L 336.775 397.468 C 326.052 400.022 312.252 398.621 301.097 399.191 C 292.129 399.65 248.015 401.293 242.835 404.907 C 239.046 407.55 182.331 542.938 175.946 557.423 C 168.207 574.98 154.712 609.088 142.476 622.437 C 139.458 625.73 136.199 627.338 131.75 627.508 C 129.904 626.549 129.134 626.132 128.307 624.188 C 123.665 613.276 151.862 543.18 157.495 528.753 C 163.501 513.185 200.314 421.288 209.646 415.27 C 211.849 413.849 213.076 413.895 215.515 414.368 C 217.177 416.967 217.693 418.784 216.598 422.235 C 214.514 428.802 208.174 438.513 205.637 444.472 C 198.452 461.344 168.141 521.066 166.594 535.223 L 167.747 536.448 C 169.925 535.872 171.602 534.575 172.395 532.493 C 178.196 517.265 225.814 415.454 223.401 406.645 C 217.097 403.207 181.306 405.172 169.721 403.734 C 166.892 401.846 167.336 402.762 166.681 400.005 C 173.152 392.374 225.786 401.181 231.082 390.777 C 246.865 359.773 259.399 319.923 272.899 287.497 C 279.404 271.874 285.666 245.105 294.061 232.467 z"/>
<path transform="translate(0,0)" fill="rgb(0,0,0)" d="M 591.993 143.437 C 606.178 142.239 637.695 143.416 650.424 150.266 C 653.238 151.78 656.029 154.088 656.89 157.306 C 657.808 160.738 656.395 164.506 654.634 167.42 C 631.903 205.025 502.065 259.426 458.716 269.754 C 456.157 270.364 453.361 270.807 451.003 269.376 L 450.586 267.559 C 453.374 262.491 469.047 256.967 475.431 255.642 C 501.736 250.179 639.435 183.516 639.586 160.641 C 637.746 156.795 635.411 155.069 631.014 154.41 C 600.283 149.805 568.815 153.068 538.205 156.977 C 467.002 166.071 396.467 182.793 327.142 201.165 C 306.267 206.361 280.1 214.768 259.379 221.37 C 216.002 234.865 173.264 250.334 131.299 267.728 C 119.564 272.675 62.0258 301.658 55.737 301.952 C 52.958 300.639 53.6968 301.466 52.4719 298.817 C 54.6507 291.043 97.3881 272.348 106.185 268.49 C 206.524 224.483 312.607 193.151 419.451 169.466 C 477.156 156.674 532.815 146.115 591.993 143.437 z"/>
<path transform="translate(0,0)" fill="rgb(0,0,0)" d="M 669.396 294.92 C 669.985 294.921 670.573 294.931 671.162 294.949 C 675.137 295.082 675.591 295.213 677.874 297.628 C 678.462 300.528 678.306 302.94 677.035 305.615 C 669.373 321.741 618.779 426.829 624.003 437.849 C 634.497 441.904 651.655 416.002 660.677 420.071 L 660.981 422.553 C 655.39 436.316 611.307 468.182 609.784 435.361 C 609.558 430.481 611.617 422.921 612.336 417.611 C 603.909 425.108 597.177 435.026 588.096 442.924 C 580.395 449.621 560.585 462.836 551.55 451.097 C 541.517 438.061 554.327 415.508 565.516 406.673 C 580.05 395.197 592.631 395.209 610.102 396.985 C 615.291 389.986 623.039 375.403 627.373 367.475 L 652.476 321.576 C 656.124 314.958 664.013 299.482 669.396 294.92 z"/>
<path transform="translate(0,0)" fill="rgb(254,254,254)" d="M 593.047 403.011 C 596.405 403.373 598.358 404.281 600.516 406.508 C 602.794 415.569 575.632 439.729 568.42 445.125 C 564.279 446.513 565.512 446.76 562.075 445.508 C 555.482 437.027 569.585 415.544 577.111 410.562 C 583.506 406.327 585.573 405.23 593.047 403.011 z"/>
<path transform="translate(0,0)" fill="rgb(0,0,0)" d="M 1823.66 378.626 C 1831.23 381.369 1826.2 386.596 1823.07 391.582 C 1811.07 410.823 1797.69 429.062 1782.18 445.576 C 1772.58 455.807 1751.4 468.814 1752.86 443.857 C 1753.04 440.793 1753.1 437.542 1753.24 434.452 C 1746.22 439.854 1723.7 466.837 1715.3 450.742 C 1710.19 440.957 1720.4 410.544 1724.49 400.524 C 1727.17 397.458 1728.69 394.98 1733.05 396.125 C 1738.58 403.802 1729.57 426.521 1728.45 439.355 C 1740.82 432.069 1762.15 396.813 1774.07 403.009 C 1777.67 411.69 1765.85 431.879 1770.03 438.648 C 1779.76 438.922 1807.64 387.956 1823.66 378.626 z"/>
<path transform="translate(0,0)" fill="rgb(0,0,0)" d="M 1651.34 389.126 C 1658.05 388.543 1671.01 389.922 1673.88 397.147 C 1673.35 400.203 1673.55 399.28 1671.31 401.853 C 1666.17 403.629 1655.98 392.241 1649.05 400.661 C 1646.92 408.859 1653.11 420.988 1656.84 428.324 C 1664.48 426.034 1691.17 414.922 1696.16 416.344 L 1696.43 418.129 C 1692.57 424.1 1671.1 430.638 1661.51 437.557 L 1666.35 452.393 C 1666.6 453.86 1666.79 455.336 1666.93 456.818 C 1668.94 480.704 1607.74 488.406 1607.02 468.016 C 1606.58 455.537 1634.69 443.711 1644.83 433.601 C 1640.3 417.482 1625.64 397.051 1651.34 389.126 z"/>
<path transform="translate(0,0)" fill="rgb(254,254,254)" d="M 1646.17 445.687 L 1648.66 446.426 C 1650.64 448.584 1652.96 450.989 1652.77 454.068 C 1651.9 468.214 1635 469.007 1625.04 469.145 C 1621.29 468.209 1621.75 468.966 1620.02 466.424 C 1621.6 459.806 1639.97 449.525 1646.17 445.687 z"/>
<path transform="translate(0,0)" fill="rgb(0,0,0)" d="M 829.507 396.137 C 836.463 395.666 848.525 396.505 849.199 405.548 C 842.951 416.258 837.725 406.487 833.379 406.396 C 821.58 406.151 798.247 431.055 798.56 441.753 C 806.301 443.045 822.968 424.611 830.125 420.702 C 856.125 406.501 838.14 433.07 843.749 441.892 C 853.546 445.512 867.387 430.163 873.326 424.008 C 875.893 421.378 876.806 420.6 880.329 421.958 L 881.328 424.287 C 880.585 436.49 836.033 470.946 828.97 436.16 C 821.986 442.387 818.478 445.169 810.191 449.692 C 796.158 457.353 776.036 454.329 785.017 433.613 C 792.724 415.836 811.589 403.169 829.507 396.137 z"/>
<path transform="translate(0,0)" fill="rgb(0,0,0)" d="M 454.323 404.515 C 457.798 404.338 459.097 404.941 461.284 407.343 C 462.124 410.867 459.792 416.833 458.642 420.546 C 466.164 416.273 497.651 396.319 499.948 414.359 C 500.949 422.222 490.954 431.628 493.805 439.207 C 501.036 443.261 525.683 424.022 538.173 420.545 C 529.307 434.886 518.145 440.649 503.555 447.78 C 470.847 463.026 478.335 436.89 485.099 417.963 C 469.586 423.853 440.865 454.171 430.982 452.05 C 426.956 446.823 434.156 436.79 437.106 431.828 C 442.33 423.038 446.813 411.428 454.323 404.515 z"/>
<path transform="translate(0,0)" fill="rgb(0,0,0)" d="M 1539.12 404.58 C 1542.52 404.167 1543.95 405.099 1545.86 407.57 C 1546.48 411.28 1544.14 416.936 1542.88 420.729 C 1552.01 415.495 1571.13 403.74 1581.61 407.327 C 1590.12 416.661 1573.28 432.169 1579.99 439.04 C 1591.22 441.436 1610.39 422.416 1618.58 422.504 L 1619.54 424.112 C 1617.28 433.184 1596.64 443.683 1588.26 447.695 C 1555.51 463.711 1563.43 436.774 1569.2 418.192 C 1554.48 423.623 1524.29 455.153 1515.09 451.933 C 1511.11 445.515 1533.3 409.33 1539.12 404.58 z"/>
<path transform="translate(0,0)" fill="rgb(0,0,0)" d="M 911.525 404.699 C 915.107 404.337 916.552 404.8 918.634 407.592 C 919.231 411.195 916.968 417.021 915.798 420.736 C 924.576 415.645 946.671 400.751 955.428 410.127 C 959.171 420.526 948.56 432.115 952.115 438.674 C 962.202 443.14 981.43 422.266 991.077 423.923 L 990.927 425.871 C 984.175 435.879 973.886 441.328 963.415 446.61 C 929.489 461.733 934.076 441.347 942.388 417.967 C 924.032 424.925 911.284 441.786 894.939 451.468 C 892.608 452.849 890.495 453.063 888.05 452.218 L 887.136 449.65 C 887.786 440.941 905.183 410.335 911.525 404.699 z"/>
<path transform="translate(0,0)" fill="rgb(0,0,0)" d="M 1869.92 401.258 C 1874.68 400.885 1882.51 400.088 1886.57 403.006 C 1893.62 408.079 1890.1 414.541 1886.09 420.133 C 1877.71 431.834 1864.98 428.046 1852.86 429.152 C 1849.5 429.459 1849.34 429.828 1847.56 432.228 C 1845.92 440.475 1849.05 444.324 1857.12 445.917 C 1882.65 450.956 1895.48 431.359 1913.54 418.739 C 1914.37 419.336 1914.75 420.469 1915.21 421.441 C 1914.37 435.603 1889.56 449.106 1877.46 452.537 C 1866.92 455.522 1850.98 456.333 1840.99 451.274 C 1830.52 445.964 1833.51 429.403 1838.6 421.232 C 1845.92 409.345 1856.85 404.477 1869.92 401.258 z"/>
<path transform="translate(0,0)" fill="rgb(254,254,254)" d="M 1872.88 409.081 C 1874.65 409.248 1875.41 410.171 1876.8 411.337 C 1877.05 419.512 1866.86 422.12 1860.29 422.315 C 1858.38 421.357 1857.75 421.174 1856.63 419.258 L 1857.25 416.884 C 1860.7 412.661 1867.8 410.526 1872.88 409.081 z"/>
<path transform="translate(0,0)" fill="rgb(0,0,0)" d="M 1949.36 394.631 L 1953.55 395.143 C 1956.66 396.651 1957.8 400.116 1959.34 403.314 C 1967.59 400.8 1984.79 394.007 1990.88 402.108 C 1992.83 408.333 1988.95 417.253 1983.08 419.746 C 1977.29 418.708 1982.2 415.572 1977.58 408.953 C 1969.54 404.502 1957.29 416.797 1951.78 422.373 C 1944.27 430.471 1938.8 439.058 1932.12 447.746 C 1928.67 452.239 1924.31 455.063 1919.55 450.526 C 1919.06 445.005 1944.6 400.419 1949.36 394.631 z"/>
<path transform="translate(0,0)" fill="rgb(0,0,0)" d="M 380.161 405.551 C 384.49 406.507 383.667 405.684 386.195 408.437 C 388.022 418.814 370.371 434.405 376.16 442.206 C 388.225 447.069 411.884 423.613 421.087 419.994 L 422.133 420.842 C 421.441 424.65 418.949 427.49 416.664 430.654 C 413.771 433.902 410.694 436.981 407.447 439.875 C 397.926 448.391 362.508 468.134 361.729 439.351 C 361.517 431.548 373.625 410.9 380.161 405.551 z"/>
<path transform="translate(0,0)" fill="rgb(0,0,0)" d="M 397.364 370.771 C 400.228 370.731 401.065 370.587 403.461 372.092 C 407.023 379.246 398.77 388.898 393.594 393.537 C 392.214 393.739 389.814 393.755 388.34 393.812 C 382.298 388.576 393.508 375.462 397.364 370.771 z"/>
</svg>