<svg version="1.1" xmlns="http://www.w3.org/2000/svg" style="display: block;" viewBox="0 0 2048 679" width="1026" height="340" preserveAspectRatio="xMidYMid meet" fill="none">
<path transform="translate(0,0)" fill="rgb(0,0,0)" d="M 463.643 83.4216 C 483.749 81.117 503.111 83.0632 523.082 88.8377 C 570.687 102.602 573.853 159.476 552.946 196.787 C 550.961 200.332 544.648 205.804 540.322 204.171 C 534.946 196.68 546.13 175.773 547.37 167.255 C 548.336 159.185 548.205 150.997 547.428 142.99 C 543.064 98.0133 494.031 88.5781 456.167 94.9965 C 359.235 111.427 263.74 161.992 184.77 219.503 C 152.568 242.954 120.854 275.707 95.7583 306.685 C 70.2393 340.917 49.3381 382.834 55.3755 426.54 C 61.2905 469.36 99.1661 493.889 140.991 486.971 C 220.707 473.784 281.815 400.493 323.256 336.202 C 327.82 329.121 331.805 320.716 335.653 313.192 C 341.18 301.602 344.685 288.355 351.795 277.657 C 355.438 272.175 363.968 270.65 369.322 274.746 C 379.612 290.255 319.064 414.46 314.014 439.631 L 314.89 440.111 C 318.927 442.354 320.814 442.993 322.052 447.311 L 320.621 449.355 C 317.071 451.387 314.311 451.073 310.235 451.116 C 302.981 455.687 295.912 474.466 291.617 482.608 C 283.15 498.659 275.684 515.678 266.131 531.207 C 241.529 571.037 215.65 618.408 167.288 631.792 C 148.509 636.989 125.174 632.476 121.733 610.95 C 112.707 554.477 178.069 503.062 220.141 476.792 C 240.457 464.106 261.484 457.797 283.02 448.538 C 285.672 447.388 290.817 441.616 291.808 439.445 C 295.76 430.787 313.989 392.426 312.211 385.405 C 307.408 386.151 297.955 398.91 294.126 403.299 C 249.148 454.86 191.147 500.704 119.078 499.01 C 73.306 497.935 39.3898 468.136 35.6851 420.611 C 31.8242 371.082 58.5925 325.507 89.4035 288.982 C 114.653 259.168 143.185 232.299 174.459 208.883 C 247.087 154.07 373.333 91.0427 463.643 83.4216 z"/>
<path transform="translate(0,0)" fill="rgb(255,255,255)" d="M 273.709 462.934 C 276.654 463.189 275.567 462.744 277.834 464.58 C 279.045 469.472 263.943 496.985 260.666 503.451 C 245.066 534.229 189 636.85 146.198 620.394 C 127.176 603.562 144.159 567.635 156.477 551.212 C 186.054 511.78 228.42 481.736 273.709 462.934 z"/>
<path transform="translate(0,0)" fill="rgb(0,0,0)" d="M 1092.65 34.2604 C 1124.47 31.1585 1113.89 58.3422 1106.79 77.0068 C 1091.78 116.485 1074.08 154.912 1057 193.529 L 990.587 343.853 L 929.134 483.208 C 918.998 506.205 908.834 529.479 898.529 552.425 C 896.908 556.035 896.117 557.144 892.917 558.559 C 884.299 557.738 883.243 552.364 885.646 544.845 C 893.426 520.492 903.818 496.316 913.603 472.631 C 947.578 391.241 982.511 310.255 1018.39 229.689 C 1027.36 209.511 1096.45 61.629 1092.71 47.4296 C 1087.06 44.9672 1059.24 58.3983 1052.25 61.4873 C 982.312 91.0618 909.205 138.936 848.399 185.677 C 823.05 205.163 736.056 278.078 769.958 318.951 C 787.236 339.781 833.963 348.193 859.819 346.367 C 867.621 345.816 896.307 342.322 900.249 347.375 L 899.713 349.436 C 897.277 352.108 894.382 353.695 890.547 354.031 C 851.108 357.49 796.352 355.096 762.22 332.583 C 752.67 326.284 745.419 315.386 743.872 304.553 C 740.972 284.246 752.285 264.362 763.513 248.652 C 782.01 222.772 815.444 193.414 839.486 174.042 C 887.065 135.704 1035.49 43.3223 1092.65 34.2604 z"/>
<path transform="translate(0,0)" fill="rgb(0,0,0)" d="M 1412.88 145.89 C 1414.66 145.899 1416.92 145.757 1418.52 146.617 C 1420.5 147.677 1421.76 149.436 1422.34 151.605 C 1427.28 170.19 1401.69 240.763 1395.93 262.252 C 1394.23 268.578 1394.86 275.658 1392.75 281.703 C 1389.38 291.352 1383.07 299.893 1379.55 309.581 C 1345.63 403.13 1311.58 499.248 1261.94 585.866 C 1254.31 599.189 1243.1 622.125 1227.34 626.411 C 1224.97 625.674 1221.96 624.991 1219.94 623.546 C 1218.13 622.252 1217 620.514 1216.69 618.282 C 1213.17 592.566 1296.44 421.988 1312.33 392.84 C 1320.91 376.993 1329.84 361.341 1339.12 345.895 C 1351.13 326.052 1364.55 306.077 1372.22 284.082 C 1382.76 253.872 1391.81 223.336 1399.9 192.399 C 1402.42 182.772 1407.78 152.536 1412.88 145.89 z"/>
<path transform="translate(0,0)" fill="rgb(255,255,255)" d="M 1330.86 387.837 C 1331.12 391.642 1324.22 408.87 1322.52 413.448 C 1300.32 473.808 1273.8 532.488 1243.16 589.032 C 1242.71 588.053 1242.32 587.078 1242.08 586.028 C 1239.99 576.924 1295.27 456.961 1303.43 440.112 C 1311.86 422.68 1320.49 404.172 1330.86 387.837 z"/>
<path transform="translate(0,0)" fill="rgb(0,0,0)" d="M 1673.53 110.456 C 1678.51 110.259 1683.3 110.156 1688.61 110.139 C 1785.95 109.817 1884.49 109.782 1980.14 130.037 C 1984.87 131.04 1988.96 133.072 1989.93 137.869 C 1985.8 147.784 1971.97 136.433 1963.75 135.593 C 1941.48 133.317 1918.81 129.01 1896.55 127.181 C 1733.49 113.78 1569.58 121.821 1407.1 138.703 C 1379.14 140.656 1349.69 144.733 1321.82 148.232 C 1262.84 155.637 1202.93 162.034 1145.66 178.454 C 1137.15 180.895 1124.04 188.81 1115.79 186.412 C 1113.38 184.219 1113.79 185.235 1113.47 182.336 C 1113.83 181.547 1114.24 180.8 1114.84 180.166 C 1141.81 151.597 1451.47 123.39 1506.2 119.16 C 1561.88 114.568 1617.68 111.665 1673.53 110.456 z"/>
<path transform="translate(0,0)" fill="rgb(0,0,0)" d="M 1845.49 254.901 C 1848.3 256.075 1847.52 255.36 1849.38 257.703 C 1850.96 270.489 1818.59 331.152 1812.11 346.597 C 1809.65 352.47 1796.14 373.779 1798.8 378.504 C 1804.45 378.542 1825.55 359.075 1837.46 363.393 C 1855.62 369.977 1837.06 399.696 1843.46 409.15 C 1856.18 409.465 1870.47 396.637 1882.37 397.088 L 1883.11 398.534 C 1877.69 408.375 1845.33 423.299 1833.11 421.884 C 1829.52 421.468 1827.52 418.868 1825.62 416 C 1823.79 405.107 1833.95 379.887 1827.89 375.869 C 1814.21 378.87 1795.03 402.044 1785.79 412.88 C 1781.02 418.473 1767.16 442.369 1758.76 430.381 C 1759.41 427.099 1761.49 421.992 1762.98 418.822 C 1787.05 367.718 1811.04 316.582 1834.68 265.275 C 1837.93 258.208 1838.32 257.367 1845.49 254.901 z"/>
<path transform="translate(0,0)" fill="rgb(0,0,0)" d="M 576.239 246.48 C 591.34 248.058 570.58 286.466 567.12 295.707 C 577.357 296.724 604.277 294.697 609.644 299.596 C 606.653 306.67 576.054 300.799 563.844 306.118 C 557.685 312.75 523.665 395.139 522.406 409.779 C 522.034 414.105 521.433 420.549 524.707 424.334 C 526.193 426.051 528.576 427.616 530.839 427.444 C 550.804 425.928 568.83 409.891 582.985 396.84 C 585.963 394.094 587.705 392.48 591.226 392.693 C 592.981 396.382 590.628 399.643 588.556 402.623 C 578.671 413.571 567.685 424.604 554.495 431.493 C 543.446 437.265 529.359 440.039 517.222 436.145 C 512.722 434.702 508.753 431.818 506.615 427.529 C 495.874 405.984 534.63 338.125 542.213 314.014 C 543.013 311.468 543.463 309.227 542.171 306.768 C 535.086 300.63 515.415 311.488 509.228 302.017 C 515.577 290.972 545.125 305.077 553.35 289.229 C 559.283 277.799 567.132 254.229 576.239 246.48 z"/>
<path transform="translate(0,0)" fill="rgb(0,0,0)" d="M 1532.92 369.648 C 1536.49 369.752 1537.15 369.766 1540.31 371.327 C 1549.61 383.778 1519.5 417.308 1527.81 427.001 C 1539.57 428.863 1574.52 381.653 1584.33 374.962 C 1586.96 373.17 1590.52 373.603 1593.5 374.401 C 1600.23 383.761 1584.99 403.672 1586.52 417.859 C 1588.91 421.622 1591.12 420.814 1594.9 418.687 C 1604.27 413.404 1613.16 407.365 1621.95 401.174 C 1626.24 397.848 1629.94 393.949 1635.06 394.492 C 1636.61 397.661 1636.43 396.383 1636.08 399.727 C 1627.73 410.753 1602.54 429.524 1588.49 432.157 C 1574.11 434.852 1569.88 424.261 1568.11 412.441 C 1557.51 420.505 1544.43 435.329 1531.88 438.9 C 1489.5 450.955 1527 381.257 1532.92 369.648 z"/>
<path transform="translate(0,0)" fill="rgb(0,0,0)" d="M 1462.6 376.257 C 1463.39 376.187 1464.18 376.159 1464.98 376.173 C 1495.61 376.566 1483.33 408.574 1468.41 420.769 C 1456.21 430.741 1450.05 432.68 1434.68 431.985 C 1431.02 431.355 1425.9 430.329 1422.68 428.493 C 1418.8 426.238 1415.98 422.528 1414.85 418.185 C 1413.22 411.814 1415.71 403.75 1419.09 398.415 C 1434.89 373.464 1442.68 381.672 1462.6 376.257 z"/>
<path transform="translate(0,0)" fill="rgb(255,255,255)" d="M 1454.08 386.259 C 1487.63 382.946 1458.03 414.408 1443.61 421.582 C 1437.86 423.434 1434.48 424.263 1430.31 419.645 C 1426.71 406.402 1442.76 391.112 1454.08 386.259 z"/>
<path transform="translate(0,0)" fill="rgb(0,0,0)" d="M 1058.55 377.638 C 1061.38 379.054 1062.16 379.306 1063.49 382.093 C 1064.13 386.252 1061.68 391.695 1060.2 395.837 C 1070.42 391.323 1095.86 373.536 1105.91 385.314 C 1109.28 396.583 1095.32 410.726 1099.73 417.92 C 1109.21 420.622 1132.18 400.382 1143.13 399.664 L 1144.28 400.83 C 1141.48 410.44 1121.66 421.023 1112.82 425.408 C 1075.1 443.416 1081.28 417.6 1089.66 393.365 C 1074.91 399.12 1063.58 409.857 1051.77 419.959 C 1047.03 424.008 1033.65 437.077 1027.94 430.928 C 1026.44 422.627 1035.84 410.267 1039.87 403.026 C 1045.38 393.121 1047.87 382.931 1058.55 377.638 z"/>
<path transform="translate(0,0)" fill="rgb(0,0,0)" d="M 441.057 374.336 C 457.025 373.944 465.389 380.863 454.496 395.918 C 443.826 410.666 421.873 401.734 412.474 408.816 C 405.589 420.884 420.601 424.794 429.557 425.252 C 454.263 426.517 466.403 405.999 485.095 394.95 C 485.555 394.678 487.368 396.044 487.883 396.371 C 481.647 416.327 456.107 431.229 436.673 433.689 C 374.032 441.619 390.082 380.653 441.057 374.336 z"/>
<path transform="translate(0,0)" fill="rgb(255,255,255)" d="M 436.695 383.964 C 440.718 383.532 442.586 383.261 444.206 387.156 C 443.088 394.076 435.277 397.196 429.371 398.646 C 425.444 397.607 422.574 397.664 421.892 393.292 C 424.544 388.527 431.742 386.064 436.695 383.964 z"/>
<path transform="translate(0,0)" fill="rgb(0,0,0)" d="M 1694.97 366.207 C 1700.88 365.868 1714.94 364.8 1714.76 373.707 L 1712.46 375.443 C 1708.52 376.641 1703.43 375.005 1699.22 374.064 C 1687.16 378.623 1672.54 392.402 1670.52 404.38 C 1665.26 435.493 1722.12 412.387 1734.27 404.276 C 1740.14 400.356 1749.62 394.628 1755.68 395.957 C 1757.29 407.756 1719.5 424.651 1710 426.364 C 1695.31 429.013 1678.01 432.074 1664.27 424.012 C 1650.76 416.09 1654.53 399.557 1661.25 388.571 C 1669.14 376.28 1680.83 369.414 1694.97 366.207 z"/>
</svg>