<svg version="1.1" xmlns="http://www.w3.org/2000/svg" style="display: block;" viewBox="0 0 2048 1062" width="544" height="282" preserveAspectRatio="none">
<path transform="translate(0,0)" fill="rgb(255,255,255)" d="M 0 0 L 2048 0 L 2048 1062 L 0 1062 L 0 0 z"/>
<path transform="translate(0,0)" fill="rgb(0,0,0)" d="M 1660.5 87.0207 C 1666 86.9626 1669.37 87.7041 1671.77 92.8475 C 1672.15 100.597 1655.54 126.749 1651.13 136.61 C 1638.33 165.197 1625.18 193.811 1612.06 222.244 L 1524.21 411.818 L 1470.73 527.706 C 1465.68 538.726 1439.03 592.928 1441.45 599.745 C 1448.37 604.041 1563.92 603.254 1583 603.591 C 1585.75 596.796 1593.76 580.656 1593.98 574.656 C 1594.58 558.01 1543.34 578.191 1543.45 561.929 C 1551.99 551.874 1591.65 560.126 1602.97 552.489 C 1615.22 544.222 1631.71 473.048 1650.1 482.946 C 1660.18 496.42 1631.39 535.34 1632.03 550.506 C 1632.49 561.144 1691.83 548.658 1692.34 560.717 C 1685.93 569.248 1636.3 562.789 1625.41 568.59 C 1618.57 572.24 1610.55 596.554 1607.63 604.093 L 1756.5 607.793 C 1774.5 608.174 1877.25 608.995 1887.89 615.96 C 1889.71 619.128 1889.5 617.76 1888.88 621.091 C 1885.71 624.149 1881.5 624.356 1876.96 624.086 C 1854.18 622.729 1832.49 621.047 1809.57 620.392 C 1740.62 618.205 1671.65 616.726 1602.66 615.955 C 1601.94 617.565 1601.24 619.18 1600.54 620.799 C 1592.13 640.373 1555.73 721.123 1563.61 739.788 C 1564.95 742.957 1567.27 745.24 1570.5 746.461 C 1589.55 753.685 1622.99 730.911 1636.36 719.074 C 1642.59 713.553 1653.16 700.605 1660.34 697.697 C 1662.95 696.639 1663.78 696.769 1666.25 697.798 C 1667.22 700.05 1667.4 700.641 1666.57 703.113 C 1660.91 719.991 1623.5 749.247 1607.15 756.905 C 1591.93 764.036 1569.87 767.398 1553.81 761.295 C 1547.37 758.847 1542.32 754.313 1539.56 747.964 C 1528.09 721.66 1567.34 643.413 1577.89 615.919 C 1544.53 615.857 1511.16 616.066 1477.81 616.545 C 1468.42 616.626 1439.28 615.569 1432.21 617.736 C 1421.16 627.666 1379.12 739.021 1371.04 759.036 C 1360.96 784.043 1346.48 833.718 1347.46 861.214 C 1347.75 869.43 1359.54 879.337 1356.34 886.78 C 1354.45 888.146 1352.86 888.682 1350.57 888.783 C 1344.97 889.031 1335.92 887.145 1331.76 883.147 C 1302.74 855.263 1367.92 706.211 1382.08 673.233 C 1386.22 663.605 1402.98 630.803 1402.48 622.332 C 1402.35 619.973 1402.02 619.759 1400.41 618.227 C 1392.53 616.947 1340.25 616.264 1335.71 621.311 C 1312.43 647.171 1291.2 676.212 1269.13 703.286 C 1244.91 732.511 1219.62 760.847 1193.34 788.235 C 1145.68 838.162 1090.74 882.611 1033.08 920.548 C 957.897 970.019 879.797 996.019 789.058 992.789 C 735.51 991.369 683.114 976.927 636.401 950.712 C 590.969 925.534 548.373 887.004 555.711 829.361 C 560.005 795.632 578.192 773.965 602.481 751.781 C 591.123 746.266 589.519 739.869 588.596 728.172 C 570.406 743.893 548.201 762.065 521.414 754.159 C 509.661 750.689 508.729 738.919 513.168 728.863 C 525.745 700.444 550.6 679.026 578.7 666.489 C 591.548 660.757 611.375 657.055 618.956 673.12 C 621.252 677.986 618.266 684.752 612.801 686.14 C 604.3 688.3 601.069 676.798 592.702 679.323 C 570.535 687 552.573 706.133 540.449 725.636 C 538.262 729.156 536.563 732.803 537.618 736.81 C 550.216 746.51 588.307 693.04 608.228 694.365 C 621.834 701.25 605.079 726.77 611.545 736.564 C 621.603 741.229 634.697 726.566 641.466 724.356 C 660.1 718.271 665.952 676.604 684.4 678.327 C 693.626 683.739 685.148 696.864 681.729 703.684 C 705.868 692.584 723.577 685.592 748.587 677.375 C 762.902 639.736 779.545 603.165 795.242 566.065 C 804.655 543.819 813.918 520.965 823.427 498.743 C 824.656 495.869 828.948 487.893 831.44 486.609 C 836.395 484.054 843.262 486.557 845.694 491.709 C 846.542 499.021 825.982 544.579 821.747 554.885 C 806.034 592.699 790.889 630.748 776.318 669.017 C 801.175 660.949 829.397 654.068 854.902 648.637 C 1004.72 616.733 1161.02 608.097 1313.72 604.932 C 1327.82 596.515 1338.84 578.103 1348.41 564.63 L 1387.38 509.178 C 1409.73 476.717 1431.51 443.865 1452.71 410.639 C 1503.66 333.205 1552.99 254.718 1600.67 175.23 C 1616.69 149.068 1632.17 122.538 1647.13 95.7348 C 1649.59 91.3239 1655.91 88.6884 1660.5 87.0207 z"/>
<path transform="translate(0,0)" fill="rgb(255,255,255)" d="M 1276.39 620.542 C 1283.78 620.166 1294.2 618.549 1300.01 622.467 C 1303.9 631.13 1279.5 656.904 1273.2 664.746 C 1187.27 771.789 1091.14 874.092 968.157 938.626 C 907.964 970.212 835.706 987.696 767.966 977.848 C 692.687 967.422 564.238 918.465 580.148 823.082 C 589.756 785.665 614.991 762.976 646.808 742.214 C 650.834 753.898 658.139 759.131 670.977 758.181 C 697.61 756.208 718.764 741.147 736.241 721.82 C 732.963 745.316 741.102 767.192 768.991 761.516 C 798.587 755.493 824.752 732.364 843.683 709.736 C 845.395 707.689 845.43 705.94 844.971 703.566 L 842.612 702.791 C 835.707 703.174 814.249 723.748 806.104 728.939 C 746.936 766.649 751.758 734.693 770.455 685.861 C 810.726 675.657 846.852 665.002 888.254 657.092 C 1017.3 632.438 1145.6 624.58 1276.39 620.542 z"/>
<path transform="translate(0,0)" fill="rgb(255,255,255)" d="M 1534.62 325.913 L 1535.41 327.378 C 1533.13 339.628 1514.94 379.265 1509.25 391.891 C 1492.36 429.366 1475.25 466.74 1457.92 504.013 C 1445.6 530.713 1433.95 557.763 1421.46 584.316 C 1416.63 592.985 1413.34 600.883 1402.5 602.056 C 1386.67 603.769 1370.44 604.112 1354.64 603.986 C 1351.51 599.587 1353.55 595.486 1356.32 591.573 C 1377.19 562.018 1398.34 532.599 1418.74 502.711 C 1458.09 444.253 1496.72 385.316 1534.62 325.913 z"/>
<path transform="translate(0,0)" fill="rgb(255,255,255)" d="M 741.106 696.067 L 742.022 696.757 L 742.133 698.473 C 731.713 716.342 692.144 740.289 670.654 739.071 C 664.854 724.548 693.9 716.11 704.219 711.077 C 715.698 705.479 729.091 700.545 741.106 696.067 z"/>
<path transform="translate(0,0)" fill="rgb(0,0,0)" d="M 1096.64 220.465 C 1172.69 219.13 1252.33 240.757 1320.38 273.961 C 1327.4 277.39 1340.54 284.641 1334.84 293.91 C 1326.41 298.639 1317.89 291.681 1310.23 287.98 C 1303.67 284.812 1297.26 281.536 1290.64 278.467 C 1266.81 267.428 1242.05 258.529 1216.64 251.873 C 1039.47 205.627 879.762 276.617 740.583 382.191 C 690.656 419.59 644.033 461.209 601.23 506.588 C 545.74 566.377 495.572 630.893 451.296 699.402 C 423.607 741.388 399.984 780.337 380.425 826.426 C 376.222 836.331 355.958 845.207 352.992 833.843 C 349.126 819.029 370.138 790.176 374.555 775.032 C 392.514 729.186 407.977 682.54 423.17 635.997 C 443.387 575.806 462.645 515.298 480.937 454.494 L 503.486 379.175 C 506.107 370.489 518.083 336.587 515.415 329.966 L 512.974 330.223 C 506.733 334.751 487.941 367.086 482.057 376.319 C 441.058 440.413 401.049 505.135 362.044 570.462 C 331.268 622.076 298.644 672.917 267.365 724.269 C 242.482 765.119 217.407 805.874 189.779 844.931 C 184.591 852.266 174.303 861.976 165.083 854.915 C 164.741 853.972 164.001 852.421 164.115 851.593 C 164.582 848.191 168.102 842.395 169.946 839.366 C 190.514 805.575 211.282 771.82 231.961 738.101 L 337.33 565.862 L 427.083 419.718 C 454.085 375.785 480.817 329.301 512.303 288.689 C 528.181 268.209 557.733 265.034 550.655 302.533 C 543.59 339.964 533.228 372.526 522.255 408.86 C 505.888 464.582 488.536 520.01 470.205 575.118 C 463.343 596.075 456.136 617.068 449.719 638.168 C 448.29 642.866 446.233 650.213 449.087 654.402 C 452.094 653.53 501.588 585.587 508.046 577.666 C 622.222 437.607 770.009 307.143 942.601 246.432 C 992.701 228.809 1043.97 222.927 1096.64 220.465 z"/>
<path transform="translate(0,0)" fill="rgb(0,0,0)" d="M 1472.05 659.75 C 1481.78 660.158 1483.04 666.243 1486.23 673.985 C 1497.13 671.135 1507.35 668.275 1518.91 666.229 C 1542.14 662.122 1544.73 681.416 1532.85 696.292 C 1530.17 699.655 1526.42 701.076 1521.99 701.241 C 1515.96 696.875 1522.48 687.375 1518.41 680.756 C 1507.16 675.696 1478.97 700.445 1471.35 708.808 C 1458.34 722.515 1449.67 739.364 1436.66 752.933 C 1432.33 757.443 1421.88 757.83 1420.43 750.863 C 1423.61 737.279 1456.95 680.906 1466.08 665.246 C 1467.23 663.274 1470.08 661.069 1472.05 659.75 z"/>
<path transform="translate(0,0)" fill="rgb(0,0,0)" d="M 708.008 620.939 C 712.045 620.913 714.976 620.751 717.779 624.081 C 722.095 634.673 707.676 654.313 697.702 658.396 C 693.633 658.816 691.571 658.872 688.659 656.512 C 685.805 647.053 700.821 626.556 708.008 620.939 z"/>
</svg>