<svg version="1.1" xmlns="http://www.w3.org/2000/svg" style="display: block;" viewBox="0 0 2048 589" width="960" height="276" preserveAspectRatio="none">
<path transform="translate(0,0)" fill="rgb(255,255,255)" d="M 0 0 L 2048 0 L 2048 589 L 0 589 L 0 0 z"/>
<path transform="translate(0,0)" fill="rgb(0,0,0)" d="M 1401.55 44.4381 C 1402.06 44.3853 1402.57 44.3461 1403.08 44.3206 C 1504.96 39.8113 1713.94 78.4232 1581.31 216.534 C 1578.69 219.258 1570.6 227.599 1570.75 230.936 C 1579.78 231.137 1599.18 227.619 1609.28 226.311 C 1628.63 224.001 1648.02 222.042 1667.45 220.436 C 1673.75 206.316 1678.67 190.207 1686.42 176.798 C 1688.18 173.755 1689.73 173.547 1692.87 173.108 C 1700.99 176.478 1693.77 189.4 1691.34 195.299 C 1688.07 203.254 1684.6 211.195 1681.25 219.129 C 1702.44 218.491 1736.44 214.636 1758.38 217.086 C 1760.22 217.291 1761.24 219.736 1761.92 221.28 L 1760.97 223.024 C 1758.55 224.054 1687.8 226.728 1677.85 227.221 C 1665.66 257.468 1651.92 288.93 1644.01 320.594 C 1642.99 324.709 1644.14 327.162 1647.19 329.582 C 1664.73 333.715 1689.89 303.774 1696.65 305.552 C 1696.78 315.328 1669.08 333.783 1660.69 337.028 C 1597.27 361.555 1654.97 249.34 1663.84 228.841 C 1630.23 232.171 1591.34 235.706 1558.39 242.262 C 1545.04 244.919 1505.32 272.381 1489.34 280.745 C 1452.92 299.551 1415.51 316.367 1377.27 331.118 C 1365.82 335.432 1318.24 348.571 1313.64 356.408 C 1289.49 397.563 1266.71 444.366 1242.55 486.176 C 1237.32 495.213 1219.51 534.54 1212.11 536.345 C 1207.83 535.666 1209.2 536.424 1206.34 533.577 C 1204.25 524.901 1228.16 485.797 1233.67 475.748 C 1249.01 448.071 1263.82 420.107 1278.1 391.872 C 1281.22 385.708 1290.9 367.44 1291.87 361.9 L 1290.55 360.491 L 1286.79 360.954 C 1249.99 370.796 1213.68 379.918 1175.77 384.427 C 1165.79 385.615 1155.48 387.125 1145.41 386.601 C 1138.74 386.254 1129.54 385.158 1124.86 379.724 C 1122.96 377.519 1122.2 374.402 1122.51 371.543 C 1125.64 342.67 1253.3 306.17 1281.97 297.685 C 1294.15 294.079 1312.5 291.074 1323.33 284.967 C 1342.53 274.15 1375.51 152.704 1385.87 144.452 C 1390.18 143.332 1388.99 143.061 1393.04 144.153 C 1404.38 154.288 1370.83 222.605 1366.43 238.128 C 1364.26 245.8 1351.84 269.079 1352.23 275.476 L 1353.91 276.54 C 1357.9 276.744 1413.28 262.347 1421.65 260.362 C 1440.33 255.941 1459.06 251.755 1477.85 247.805 C 1495.57 244.222 1525.07 242.223 1540.14 234.142 C 1563.13 221.811 1596.35 183.234 1603.92 157.679 C 1608.07 143.653 1607.11 128.137 1600.02 115.238 C 1584.88 87.7037 1554.42 74.5997 1525.67 66.2262 C 1428.7 37.9884 1250.76 56.0412 1159.93 99.0377 C 1145.99 105.636 1129.71 114.054 1117.9 123.938 C 1110.95 129.751 1105.11 139.591 1097.08 143.753 C 1094.11 145.293 1092.24 145.145 1089.17 144.246 C 1081.81 135.368 1106.12 117.582 1113.07 113.124 C 1195.38 60.3011 1305.97 48.6805 1401.55 44.4381 z"/>
<path transform="translate(0,0)" fill="rgb(255,255,255)" d="M 1313.38 299.151 L 1317.14 298.808 C 1325.48 303.39 1304.15 338.626 1300.7 344.964 C 1276.04 357.293 1175.98 380.053 1146.77 376.857 C 1143.64 376.449 1141.95 375.767 1139.94 373.498 C 1139.72 371.565 1139.49 370.828 1140.51 369.08 C 1154.81 344.376 1281.31 308.201 1313.38 299.151 z"/>
<path transform="translate(0,0)" fill="rgb(255,255,255)" d="M 1511.65 250.222 L 1512.57 250.311 L 1512.73 251.604 C 1487.2 276.003 1362.58 326.202 1325.58 336.769 C 1325.27 336.703 1324.39 335.901 1324.07 335.638 C 1323.65 331.035 1340.64 297.089 1344.14 292.083 C 1352.89 286.95 1373.88 282.532 1384.55 279.587 C 1426.46 268.023 1469.12 259.298 1511.65 250.222 z"/>
<path transform="translate(0,0)" fill="rgb(0,0,0)" d="M 361.744 44.4479 C 370.607 43.6314 388.411 44.5039 397.728 44.8599 C 447.949 46.7787 507.699 54.1478 550.264 82.713 C 565.83 93.1597 580.335 110.761 583.379 129.592 C 588.129 158.977 571.19 183.467 552.838 204.396 C 545.202 213.105 535.184 222.573 528.694 231.752 C 541.662 231.142 561.053 227.202 575.028 225.654 C 620.117 220.656 665.093 216.743 710.498 216.064 C 715.371 215.992 718.776 216.43 722.045 219.826 L 721.8 222.192 C 717.698 225.579 687.986 224.48 680.024 224.83 C 640.604 226.789 601.285 230.436 562.177 235.76 C 549.676 237.392 531.25 239.373 519.232 242.001 C 504.442 245.234 485.832 260.409 471.092 268.769 C 452.904 279.12 434.33 288.777 415.41 297.72 C 390.232 309.774 364.554 320.759 338.447 330.643 C 320.043 337.434 293.2 344.84 276.578 353.437 C 265.131 366.917 252.211 396.555 244.072 411.121 C 221.585 451.365 201.598 489.333 179.639 529.414 C 178 532.404 174.541 535.159 171.401 536.282 C 168.043 535.9 169.215 536.404 166.689 533.894 C 164.273 525.634 183.599 494.656 188.545 485.668 C 203.692 458.462 218.4 431.015 232.663 403.336 C 238.872 391.231 248.885 372.368 253.423 359.951 C 241.371 361.605 226.968 366.821 213.356 369.835 C 177.942 377.677 129.641 390.454 93.6593 384.638 C 90.3624 383.899 84.8148 381 83.5392 377.809 C 76.3235 359.757 117.328 341.988 128.723 336.655 C 159.643 323.978 190.86 313.782 222.794 303.596 C 230.697 301.075 283.688 286.658 287.073 282.696 C 296.792 271.318 308.104 239.707 314.435 224.013 C 319.342 211.937 324.001 199.762 328.41 187.495 C 332.066 177.199 339.754 145.303 350.987 143.375 C 352.987 144.193 354.105 144.369 355.322 146.23 C 363.893 159.335 316.904 254.963 312.651 275.047 L 314.614 276.25 C 327.361 275.598 364.913 264.436 380.345 260.721 C 411.869 253.131 443.467 246.916 475.357 241.131 C 484.571 239.459 494.233 238.057 502.372 233.119 C 525.545 219.057 558.598 181.717 565.054 154.583 C 568.689 139.304 566.41 124.602 558.096 111.269 C 542.143 85.6846 507.29 70.6841 479.011 64.1743 C 377.632 40.8377 208.778 54.9122 115.805 101.203 C 102.967 107.596 87.4195 115.676 76.723 125.237 C 70.5788 130.729 65.1186 139.572 58.15 143.677 C 55.4538 145.265 53.0413 145.19 50.1017 144.448 C 47.366 141.97 47.9772 143.177 47.5124 139.661 C 49.5544 132.091 63.1516 120.101 69.7955 115.645 C 151.738 60.687 265.616 48.6426 361.744 44.4479 z"/>
<path transform="translate(0,0)" fill="rgb(255,255,255)" d="M 274.029 299.165 C 275.752 298.878 279.608 298.323 279.603 300.718 C 279.578 313.55 266.866 334.112 260.958 345.079 C 234.945 357.63 137.021 379.87 106.843 376.864 C 103.791 376.165 102.448 376.062 100.376 373.646 C 96.2718 349.834 250.449 305.62 274.029 299.165 z"/>
<path transform="translate(0,0)" fill="rgb(255,255,255)" d="M 472.087 250.271 L 473.428 250.569 C 470.972 258.268 416.006 284.555 405.742 289.244 C 367.111 306.893 326.662 325.478 285.665 336.804 L 284.536 336.193 C 283.75 331.367 298.375 302.689 301.53 296.881 C 306.985 286.841 336.392 281.802 347.744 278.84 C 388.882 268.016 430.35 258.488 472.087 250.271 z"/>
<path transform="translate(0,0)" fill="rgb(0,0,0)" d="M 1952.86 279.644 C 1955.88 279.606 1956.6 279.526 1959.33 280.722 C 1964.6 288.562 1953.42 308.29 1950.99 320.729 C 1963.21 317.284 1978.11 303.384 1985.4 304.938 C 1984.63 317.534 1949.8 329.341 1946.85 334.196 C 1934.65 357.564 1929.86 380.734 1918.02 405.329 C 1894.95 453.229 1846.13 453.162 1803.28 434.31 C 1791.94 429.32 1786.76 420.45 1793.33 408.295 C 1815.6 382.217 1867.1 360.034 1898.67 345.527 C 1908.34 341.081 1920.83 336.276 1929.76 330.366 C 1932.25 328.72 1932.63 326.246 1932.9 323.398 C 1931.77 322.93 1917.16 331.883 1909.22 332.051 C 1878.51 332.699 1897.84 281.066 1914.46 281.196 C 1919.02 290.032 1898.25 317.433 1909.97 323.241 C 1923.99 323.437 1945.07 286.834 1952.58 279.897 L 1952.86 279.644 z"/>
<path transform="translate(0,0)" fill="rgb(255,255,255)" d="M 1922.52 343.81 C 1924.52 344.356 1923.82 343.851 1925.05 345.98 C 1924.84 353.637 1913.72 382.237 1910.38 390.443 C 1903.72 406.783 1891.35 428.247 1874.04 434.624 C 1853.88 442.047 1833.57 437.312 1814.79 429.293 C 1787.83 417.152 1814.58 399.734 1828.69 391.256 C 1858.54 373.33 1890.9 358.365 1922.52 343.81 z"/>
<path transform="translate(0,0)" fill="rgb(0,0,0)" d="M 1017.84 279.648 C 1020.74 279.617 1021.3 279.67 1024.07 280.484 C 1032.4 290.802 1011.43 313.763 1019.72 318.891 C 1030.33 317.968 1043.64 300.857 1051.37 304.493 C 1051.8 315.865 1015.27 329.144 1012 334.436 C 999.568 357.586 994.65 380.888 983.044 405.359 C 960.042 453.855 911.106 452.805 868.135 434.221 C 856.832 429.333 851.918 420.227 858.435 408.246 C 875.347 388.781 908.459 371.373 931.942 360.134 C 944.346 354.256 956.804 348.491 969.314 342.84 C 979.172 338.461 992.016 334.721 998.582 325.977 L 997.42 324.608 L 997.652 324.607 C 987.856 325.849 965.275 341.781 958.916 323.443 C 954.72 311.339 965.072 284.646 978.193 280.623 C 986.428 284.344 967.606 309.113 972.272 321.467 C 985.122 330.17 1010.33 286.749 1017.57 279.905 L 1017.84 279.648 z"/>
<path transform="translate(0,0)" fill="rgb(255,255,255)" d="M 987.468 343.792 L 989.369 344.302 L 990.443 346.351 C 989.952 352.965 979.697 379.24 977.146 386.272 C 959.912 433.763 930.075 449.648 882.181 430.338 C 877.761 428.508 871.42 425.594 869.042 421.252 C 867.854 419.083 867.835 416.604 868.627 414.299 C 876.066 392.667 963.576 354.981 987.468 343.792 z"/>
<path transform="translate(0,0)" fill="rgb(0,0,0)" d="M 1575.7 287.199 C 1616.25 282.853 1596.73 334.36 1557.42 337.084 C 1542.55 335.224 1531.04 330.219 1537.46 311.621 C 1540.33 303.282 1551.22 290.926 1559.87 289.34 C 1565.4 288.324 1568.12 290.539 1575.31 287.37 L 1575.7 287.199 z"/>
<path transform="translate(0,0)" fill="rgb(255,255,255)" d="M 1575.74 295.161 C 1581.4 294.886 1587.12 297.345 1584.67 303.795 C 1580.18 315.639 1570.13 324.12 1558.75 328.484 C 1557.17 328.789 1555.19 328.67 1553.55 328.65 C 1551.95 327.694 1549.64 326.6 1549.64 324.445 C 1549.63 309.806 1562.68 297.823 1575.74 295.161 z"/>
<path transform="translate(0,0)" fill="rgb(0,0,0)" d="M 784.464 280.194 C 785.31 280.139 786.156 280.09 787.002 280.047 C 794.281 279.676 801.654 280.881 801.912 290.086 C 800.161 293.43 801.191 292.444 797.768 294.045 C 793.927 294.291 791.153 291.842 787.893 289.653 C 773.308 295.755 762.602 304.328 755.102 318.604 C 754.044 320.618 752.995 322.318 753.499 324.643 L 755.558 325.2 C 767.854 321.587 787.286 298.415 795.388 300.321 C 802.89 306.95 791.626 323.549 802.879 326.541 C 811.879 325.021 822.043 314.118 828.154 307.604 C 830.61 305.621 832.235 304.892 835.201 305.277 C 839.391 317.592 790.237 357.481 783.496 320.407 C 775.673 327.147 771.552 330.511 761.736 334.817 C 745.873 341.778 731.02 335.089 740.182 316.261 C 748.506 299.156 766.525 286.46 784.464 280.194 z"/>
<path transform="translate(0,0)" fill="rgb(0,0,0)" d="M 728.708 261.741 C 732.499 262.362 732.405 261.742 734.866 264.153 C 735.531 271.224 696.196 322.609 688.002 329.624 C 658.155 355.176 660.337 324.47 660.992 305.598 C 660.903 299.471 659.929 282.241 669.814 283.482 C 678.278 291.987 669.497 313.173 674.176 322.765 L 675.798 323.145 C 685.778 316.972 715.999 272.813 728.708 261.741 z"/>
<path transform="translate(0,0)" fill="rgb(0,0,0)" d="M 884.297 278.275 C 890.894 277.591 905.167 275.447 906.041 284.484 C 901.443 290.353 893.876 282.742 888.356 285.897 C 854.248 305.384 856.579 337.711 901.854 321.75 C 915 317.116 927.491 307.628 939.455 303.027 C 941.934 305.581 941.746 306.211 940.692 309.116 C 921.392 326.909 890.385 341.607 863.337 331.252 C 851.455 326.703 848.81 311.701 854.614 301.191 C 861.107 289.433 871.547 282.454 884.297 278.275 z"/>
<path transform="translate(0,0)" fill="rgb(0,0,0)" d="M 1819.35 278.259 C 1825.81 277.565 1840.26 275.59 1841.06 284.477 C 1836.35 290.245 1828.5 282.831 1823.26 285.878 C 1788.27 306.23 1792.27 337.835 1837.48 321.503 C 1849.96 316.994 1863.05 307.283 1874.46 303.079 C 1875.52 304.281 1877.33 307.022 1875.84 308.572 C 1862.92 323.821 1825.87 340.259 1805.24 333.573 C 1767.35 321.296 1792.92 286.666 1819.35 278.259 z"/>
<path transform="translate(0,0)" fill="rgb(0,0,0)" d="M 517.131 278.517 L 521.015 279.161 C 523.994 280.815 525.252 284.184 526.856 287.292 C 534.625 285.119 549.151 279.72 556.4 284.143 C 561.823 290.535 556.946 302.392 548.848 303.738 C 546.906 297.78 548.207 294.286 541.732 291.903 C 533.18 292.452 523.194 302.08 517.484 308.169 C 509.445 317.061 502.846 329.76 494.279 336.362 C 490.59 337.175 491.736 337.434 488.647 336.168 L 487.764 333.888 C 488.366 325.105 511.217 284.981 517.131 278.517 z"/>
<path transform="translate(0,0)" fill="rgb(0,0,0)" d="M 1728.41 289.661 C 1731.76 290.775 1730.81 290.04 1733.07 292.486 C 1734.86 301.711 1717.85 318.958 1722.74 326.428 C 1735.55 330.809 1758.12 308.197 1767.74 304.134 L 1768.86 304.788 C 1768.11 308.813 1765.48 311.81 1763.05 315.168 C 1754.05 325.611 1733.22 341.854 1718.62 338.086 C 1696.71 332.427 1716.7 297.041 1728.41 289.661 z"/>
<path transform="translate(0,0)" fill="rgb(0,0,0)" d="M 599.574 289.529 C 602.689 290.296 603.558 290.869 604.917 293.499 C 604.888 301.533 587.112 321.721 597.71 327.036 C 610.691 327.286 631.711 307.73 642.504 300.441 C 640.065 306.588 639.242 308.566 635.498 313.956 C 624.751 326.22 609.24 339.178 591.802 338.208 C 583.059 337.533 578.817 329.987 580.372 322.012 C 582.526 310.965 590.533 296.196 599.574 289.529 z"/>
<path transform="translate(0,0)" fill="rgb(0,0,0)" d="M 1744.42 254.66 C 1746.22 254.8 1747.92 255.39 1749.66 255.895 C 1754.93 262.435 1745.43 272.983 1740.62 277.519 C 1738.32 277.973 1737.23 277.874 1734.89 277.785 C 1729.5 272.451 1740.61 259.134 1744.42 254.66 z"/>
<path transform="translate(0,0)" fill="rgb(0,0,0)" d="M 616.038 254.437 C 618.309 254.73 619.331 255.279 621.428 256.2 C 625.675 263.807 616.655 273.469 611.093 278.138 L 606.369 277.87 C 600.726 272.487 612.231 258.955 616.038 254.437 z"/>
</svg>